<svg xmlns="http://www.w3.org/2000/svg" viewBox="0 0 45.68 45.68"><defs><style>.cls-1,.cls-2{fill:#fff;}.cls-1{opacity:0.26;}.cls-2{fill-rule:evenodd;}</style></defs><g id="Capa_2" data-name="Capa 2"><g id="Capa_1-2" data-name="Capa 1"><circle class="cls-1" cx="22.84" cy="22.84" r="22.84"/><path class="cls-2" d="M28.44,22.51a.85.85,0,0,0-.06-.31L23.66,9.58a.88.88,0,0,0-1.65,0L17.29,22.2a1.12,1.12,0,0,0-.05.31h0a1.06,1.06,0,0,0,.05.31L22,35.45a.88.88,0,0,0,1.65,0l4.72-12.62a.81.81,0,0,0,.06-.31h0Zm-5.6-.87H19.39l3.45-9.23,3.45,9.23Z"/></g></g></svg>